<?xml version="1.0" encoding="UTF-8"?>
<svg width="64" height="64" viewBox="0 0 37 37" fill="none" xmlns="http://www.w3.org/2000/svg">
  <path d="M18.5 0.5C28.4417 0.5 36.5 8.55495 36.5 18.5C36.5 28.445 28.4417 36.5 18.5 36.5C8.5583 36.5 0.5 28.445 0.5 18.5C0.5 8.55495 8.5583 0.5 18.5 0.5ZM18.5 9.90625C17.5835 9.90625 16.8438 10.6514 16.8438 11.5625V16.8438H11.5625C10.646 16.8438 9.90625 17.5889 9.90625 18.5C9.90625 19.4111 10.646 20.1562 11.5625 20.1562H16.8438V25.4375C16.8438 26.3486 17.5835 27.0938 18.5 27.0938C19.4165 27.0938 20.1562 26.3486 20.1562 25.4375V20.1562H25.4375C26.354 20.1562 27.0938 19.4111 27.0938 18.5C27.0938 17.5889 26.354 16.8438 25.4375 16.8438H20.1562V11.5625C20.1562 10.6514 19.4165 9.90625 18.5 9.90625Z" fill="#6CCF78" stroke="#67B476"/>
</svg>